<svg xmlns="http://www.w3.org/2000/svg" viewBox="0 0 400 240">
<rect width="400" height="240" fill="#0a0d14"/>
<g transform="translate(200,120)">
<path d="M -78 -78 A 110 110 0 0 1 0 -110 L 0 0 Z" fill="#3ee08a" transform="translate(-2,-2)" opacity="0.9"/>
<path d="M 0 -110 A 110 110 0 0 1 78 -78 L 0 0 Z" fill="#ff3d7f" transform="translate(2,-2)" opacity="0.55"/>
<path d="M -78 78 A 110 110 0 0 1 -110 0 L 0 0 Z" fill="#ffce45" transform="translate(-2,2)" opacity="0.55"/>
<path d="M 78 78 A 110 110 0 0 1 0 110 L 0 0 Z" fill="#2dd4f0" transform="translate(2,2)" opacity="0.55"/>
<path d="M 0 110 A 110 110 0 0 1 -78 78 L 0 0 Z" fill="#ffce45" transform="translate(-2,2)" opacity="0.55"/>
<path d="M 110 0 A 110 110 0 0 1 78 78 L 0 0 Z" fill="#2dd4f0" transform="translate(2,2)" opacity="0.55"/>
<path d="M -110 0 A 110 110 0 0 1 -78 -78 L 0 0 Z" fill="#3ee08a" transform="translate(-2,-2)" opacity="0.55"/>
<path d="M 78 -78 A 110 110 0 0 1 110 0 L 0 0 Z" fill="#ff3d7f" transform="translate(2,-2)" opacity="0.55"/>
<circle cx="0" cy="0" r="40" fill="#11161f" stroke="#2a3550" stroke-width="2"/>
<text x="0" y="8" font-family="monospace" font-size="20" fill="#eef1f6" text-anchor="middle" font-weight="700">▶</text>
</g>
</svg>
