<svg xmlns="http://www.w3.org/2000/svg" viewBox="0 0 400 240">
  <rect width="400" height="240" fill="#0a0d14"/>
  <g>
    <!-- grid of cells -->
    <rect x="110" y="50" width="34" height="34" rx="4" fill="#161c28"/>
    <rect x="146" y="50" width="34" height="34" rx="4" fill="#060809"/>
    <rect x="182" y="50" width="34" height="34" rx="4" fill="#060809"/>
    <rect x="218" y="50" width="34" height="34" rx="4" fill="#161c28"/>
    <rect x="254" y="50" width="34" height="34" rx="4" fill="#161c28"/>

    <rect x="110" y="86" width="34" height="34" rx="4" fill="#060809"/>
    <rect x="146" y="86" width="34" height="34" rx="4" fill="#060809"/>
    <rect x="182" y="86" width="34" height="34" rx="4" fill="#ff3d7f"/>
    <rect x="218" y="86" width="34" height="34" rx="4" fill="#060809"/>
    <rect x="254" y="86" width="34" height="34" rx="4" fill="#161c28"/>

    <rect x="110" y="122" width="34" height="34" rx="4" fill="#161c28"/>
    <rect x="146" y="122" width="34" height="34" rx="4" fill="#060809"/>
    <rect x="182" y="122" width="34" height="34" rx="4" fill="#060809"/>
    <rect x="218" y="122" width="34" height="34" rx="4" fill="#060809"/>
    <rect x="254" y="122" width="34" height="34" rx="4" fill="#161c28"/>

    <rect x="110" y="158" width="34" height="34" rx="4" fill="#161c28"/>
    <rect x="146" y="158" width="34" height="34" rx="4" fill="#161c28"/>
    <rect x="182" y="158" width="34" height="34" rx="4" fill="#060809"/>
    <rect x="218" y="158" width="34" height="34" rx="4" fill="#161c28"/>
    <rect x="254" y="158" width="34" height="34" rx="4" fill="#161c28"/>

    <!-- numbers -->
    <text x="127" y="112" font-family="monospace" font-size="18" font-weight="700" fill="#5b8cff" text-anchor="middle">1</text>
    <text x="163" y="112" font-family="monospace" font-size="18" font-weight="700" fill="#3ee08a" text-anchor="middle">2</text>
    <text x="235" y="112" font-family="monospace" font-size="18" font-weight="700" fill="#ff3d7f" text-anchor="middle">3</text>
    <text x="163" y="148" font-family="monospace" font-size="18" font-weight="700" fill="#5b8cff" text-anchor="middle">1</text>
    <text x="199" y="148" font-family="monospace" font-size="18" font-weight="700" fill="#3ee08a" text-anchor="middle">2</text>
    <text x="235" y="148" font-family="monospace" font-size="18" font-weight="700" fill="#5b8cff" text-anchor="middle">1</text>

    <!-- bomb -->
    <text x="199" y="113" font-size="22" text-anchor="middle">💣</text>
    <!-- flag -->
    <text x="127" y="184" font-size="20" text-anchor="middle">🚩</text>
  </g>
</svg>
