<svg xmlns="http://www.w3.org/2000/svg" viewBox="0 0 400 240">
<rect width="400" height="240" fill="#0a0d14"/>
<rect x="120" y="40" width="160" height="160" rx="14" fill="#0e1830" stroke="#2a3550"/>
<g>
<circle cx="145" cy="65" r="11" fill="#060809"/><circle cx="173" cy="65" r="11" fill="#ff3d7f"/><circle cx="201" cy="65" r="11" fill="#060809"/><circle cx="229" cy="65" r="11" fill="#ffce45"/><circle cx="257" cy="65" r="11" fill="#060809"/>
<circle cx="145" cy="93" r="11" fill="#060809"/><circle cx="173" cy="93" r="11" fill="#ffce45"/><circle cx="201" cy="93" r="11" fill="#ff3d7f"/><circle cx="229" cy="93" r="11" fill="#ff3d7f"/><circle cx="257" cy="93" r="11" fill="#060809"/>
<circle cx="145" cy="121" r="11" fill="#ffce45"/><circle cx="173" cy="121" r="11" fill="#ff3d7f"/><circle cx="201" cy="121" r="11" fill="#ffce45"/><circle cx="229" cy="121" r="11" fill="#ffce45"/><circle cx="257" cy="121" r="11" fill="#ff3d7f"/>
<circle cx="145" cy="149" r="11" fill="#ff3d7f"/><circle cx="173" cy="149" r="11" fill="#ffce45"/><circle cx="201" cy="149" r="11" fill="#ff3d7f"/><circle cx="229" cy="149" r="11" fill="#ff3d7f"/><circle cx="257" cy="149" r="11" fill="#ffce45"/>
<circle cx="145" cy="177" r="11" fill="#ffce45"/><circle cx="173" cy="177" r="11" fill="#ff3d7f"/><circle cx="201" cy="177" r="11" fill="#ffce45"/><circle cx="229" cy="177" r="11" fill="#ff3d7f"/><circle cx="257" cy="177" r="11" fill="#ffce45"/>
</g>
</svg>
